<svg width="12" height="12" viewBox="0 0 12 12" fill="none" xmlns="http://www.w3.org/2000/svg">
<path fill-rule="evenodd" clip-rule="evenodd" d="M0.170067 0.170067C0.396823 -0.056689 0.764467 -0.056689 0.991223 0.170067L6 5.17884L11.0088 0.170067C11.2355 -0.056689 11.6032 -0.056689 11.8299 0.170067C12.0567 0.396823 12.0567 0.764467 11.8299 0.991223L6.82116 6L11.8299 11.0088C12.0567 11.2355 12.0567 11.6032 11.8299 11.8299C11.6032 12.0567 11.2355 12.0567 11.0088 11.8299L6 6.82116L0.991223 11.8299C0.764467 12.0567 0.396823 12.0567 0.170067 11.8299C-0.056689 11.6032 -0.056689 11.2355 0.170067 11.0088L5.17884 6L0.170067 0.991223C-0.056689 0.764467 -0.056689 0.396823 0.170067 0.170067Z" fill="#F8A300"/>
</svg>
